<?xml version="1.0" standalone="no"?>
<!DOCTYPE svg PUBLIC "-//W3C//DTD SVG 20010904//EN"
 "http://www.w3.org/TR/2001/REC-SVG-20010904/DTD/svg10.dtd">
<svg version="1.0" xmlns="http://www.w3.org/2000/svg"
 width="512.000000pt" height="512.000000pt" viewBox="0 0 512.000000 512.000000"
 preserveAspectRatio="xMidYMid meet">
<metadata>
Created by potrace 1.14, written by Peter Selinger 2001-2017
</metadata>
<g transform="translate(0.000000,512.000000) scale(0.100000,-0.100000)"
fill="#000000" stroke="none">
<path d="M985 3830 c-65 -15 -117 -55 -160 -124 -16 -26 -20 -62 -25 -197 0
-4 -15 -4 -32 0 -18 4 -85 7 -148 6 -92 -1 -124 -5 -160 -22 -55 -25 -102 -74
-122 -128 -20 -50 -18 -26 -18 -232 l0 -178 -66 -1 c-83 -2 -141 -24 -186 -72
-61 -64 -67 -95 -67 -322 0 -224 7 -257 63 -319 44 -48 107 -73 185 -75 78 -2
69 24 74 -221 2 -153 5 -174 25 -212 27 -51 54 -78 107 -105 33 -18 61 -21
165 -23 69 -1 137 1 153 6 26 7 27 7 28 -34 2 -149 37 -219 134 -270 37 -20
55 -21 260 -22 196 0 224 2 258 19 52 26 96 72 120 126 19 41 20 68 21 390 l1
345 955 1 c525 0 960 -1 966 -3 7 -3 11 -109 11 -347 1 -326 2 -346 22 -391
11 -26 36 -61 53 -77 64 -58 84 -62 308 -64 227 -2 273 7 332 63 59 56 75 107
78 256 0 12 4 15 12 11 7 -4 69 -9 138 -10 177 -2 250 29 301 128 26 52 27 61
28 258 l1 175 64 1 c86 1 147 26 194 79 58 65 62 92 59 335 -2 214 -2 215 -29
256 -53 82 -111 113 -217 118 -33 1 -63 4 -65 7 -3 3 -6 85 -6 183 -1 98 -7
192 -12 210 -21 59 -61 105 -118 133 -49 25 -65 27 -174 29 -67 1 -133 -2
-148 -7 -26 -7 -28 -6 -28 24 -3 165 -42 239 -150 285 -40 17 -69 19 -255 18
-200 -1 -212 -2 -255 -24 -54 -29 -86 -63 -112 -120 -18 -40 -20 -70 -21 -390
l-2 -347 -955 -1 c-525 0 -960 2 -966 4 -9 2 -12 98 -11 347 l0 343 -27 56
c-26 53 -74 97 -131 121 -25 10 -409 15 -450 5z"/>
</g>
</svg>
